<?xml version="1.0" standalone="no"?><!DOCTYPE svg PUBLIC "-//W3C//DTD SVG 1.1//EN" "http://www.w3.org/Graphics/SVG/1.1/DTD/svg11.dtd"><svg t="1769109236431" class="icon" viewBox="0 0 1024 1024" version="1.1" xmlns="http://www.w3.org/2000/svg" p-id="17240" xmlns:xlink="http://www.w3.org/1999/xlink" width="200" height="200"><path d="M512 992A352 352 0 0 1 160 640c0-185.92 313.6-579.2 327.04-595.84a32 32 0 0 1 49.92 0C550.4 60.8 864 454.08 864 640a352 352 0 0 1-352 352z m0-876.16c-98.88 128-288 400-288 524.16a288 288 0 0 0 576 0c0-124.16-189.12-395.52-288-524.16z" fill="#ffffff" p-id="17241"></path><path d="M416 864a32 32 0 0 1-15.68-4.16 32 32 0 0 1-16.32-35.52L423.04 672H320a32 32 0 0 1-29.44-19.84 32 32 0 0 1 6.72-34.88l256-256a32 32 0 0 1 53.76 32L568.96 544H672a32 32 0 0 1 29.44 19.84 32 32 0 0 1-6.72 34.88l-256 256A32 32 0 0 1 416 864z m-18.88-256h66.88a32 32 0 0 1 25.28 12.16 32 32 0 0 1 5.76 27.52l-19.84 80L594.88 608H528a32 32 0 0 1-25.28-12.16 32 32 0 0 1-5.76-27.52l19.84-80z" fill="#ffffff" p-id="17242"></path></svg>