<?xml version="1.0" standalone="no"?><!DOCTYPE svg PUBLIC "-//W3C//DTD SVG 1.1//EN" "http://www.w3.org/Graphics/SVG/1.1/DTD/svg11.dtd"><svg t="1769109214813" class="icon" viewBox="0 0 1024 1024" version="1.1" xmlns="http://www.w3.org/2000/svg" p-id="16016" xmlns:xlink="http://www.w3.org/1999/xlink" width="200" height="200"><path d="M992.64 933.12H31.36c-17.28 0-31.36 14.08-31.36 31.36 0 17.28 14.08 31.36 31.36 31.36h961.28c17.28 0 31.36-14.08 31.36-31.36 0-17.28-14.08-31.36-31.36-31.36zM247.893333 643.626667a20.949333 20.949333 0 0 0 25.386667-15.146667c28.373333-114.346667 130.346667-194.133333 248.32-194.133333 11.52 0 20.906667-9.386667 20.906667-20.906667s-9.386667-20.906667-20.906667-20.906667c-137.173333 0-256 92.8-288.853333 225.92-2.773333 11.093333 4.053333 22.4 15.146666 25.173334z m0 0" fill="#ffffff" p-id="16017"></path><path d="M113.28 870.613333h821.76c55.04 0 88.96-39.68 88.96-104.32 0-47.786667-25.386667-86.186667-63.36-100.48-11.093333-197.12-148.266667-360.533333-331.093333-408.96a136.533333 136.533333 0 0 0 35.413333-91.733333c0-75.52-61.44-137.173333-137.173333-137.173333-75.52 0-137.173333 61.44-137.173334 137.173333 0 33.28 11.946667 63.573333 31.573334 87.466667-194.56 42.026667-342.826667 210.56-353.92 414.72-39.893333 16-68.266667 55.04-68.266667 99.413333 0 56.32 51.84 103.893333 113.28 103.893333zM527.573333 90.88a74.666667 74.666667 0 0 1 74.453334 74.453333 74.666667 74.666667 0 0 1-74.453334 74.453334c-40.96 0-74.453333-33.28-74.453333-74.453334 0-41.173333 33.493333-74.453333 74.453333-74.453333zM102.613333 722.56c15.786667-1.92 27.733333-15.146667 27.733334-31.146667 0.213333-213.12 173.866667-386.346667 386.986666-386.346666 210.133333 0 381.226667 173.226667 381.44 386.133333 0 16.64 13.226667 30.506667 29.866667 31.36 24.32 1.066667 32.853333 24.32 32.853333 44.16 0 41.173333-17.706667 41.173333-26.453333 41.173333H113.28c-23.893333 0-50.346667-17.493333-50.346667-42.026666-0.213333-21.76 17.28-40.533333 39.68-43.306667z m0 0" fill="#ffffff" p-id="16018"></path></svg>