<?xml version="1.0" standalone="no"?><!DOCTYPE svg PUBLIC "-//W3C//DTD SVG 1.1//EN" "http://www.w3.org/Graphics/SVG/1.1/DTD/svg11.dtd"><svg height="1046" node-id="1" sillyvg="true" template-height="1046" template-width="913" version="1.1" viewBox="0 0 913 1046" width="913" xmlns="http://www.w3.org/2000/svg" xmlns:xlink="http://www.w3.org/1999/xlink"><defs node-id="61"></defs><g node-id="173"><path d="M 817.25 72.83 C 898.04 128.66 927.44 257.89 906.50 362.83 C 885.56 467.77 814.08 548.28 749.36 606.65 C 684.43 665.00 626.06 701.00 556.47 742.00 C 486.89 783.24 405.89 829.56 309.47 831.89 C 213.24 834.21 101.57 792.55 45.94 711.12 C -9.92 629.70 -9.71 508.73 19.27 401.07 C 48.03 293.42 105.56 199.07 185.72 143.07 C 265.88 87.07 368.87 69.44 486.47 51.89 C 604.07 34.34 736.25 16.78 817.25 72.83 Z" fill="#f0f0f0" fill-rule="nonzero" group-id="1" node-id="65" stroke="none" target-height="817.43" target-width="937.36" target-x="-9.92" target-y="16.78"></path><path d="M 236.09 756.61 L 119.92 681.78 L 113.20 819.80 L 236.09 756.61" fill="#d8dfff" fill-rule="nonzero" group-id="1" node-id="67" stroke="none" target-height="138.01996" target-width="122.89" target-x="113.2" target-y="681.78"></path><path d="M 234.37 1.60 L 739.82 1.60 L 739.82 843.09 L 234.37 843.09 Z" fill="none" group-id="1" node-id="69" stroke="#1b3c87" stroke-linecap="round" stroke-width="3.19" target-height="841.49005" target-width="505.45" target-x="234.36998" target-y="1.6"></path><path d="M 328.32 555.08 C 313.40 565.48 197.68 676.23 196.77 699.28 C 195.86 722.33 232.00 920.78 237.91 929.37 L 293.51 929.37 C 293.51 929.37 288.51 738.61 292.61 733.64 C 296.71 728.67 448.61 644.13 448.61 644.13 C 448.61 644.13 399.29 508.52 328.32 555.08 Z" fill="#3b3744" fill-rule="nonzero" group-id="1" node-id="71" stroke="none" target-height="420.85007" target-width="252.74997" target-x="195.86002" target-y="508.52"></path><path d="M 97.83 383.66 C 97.83 404.07 81.28 420.62 60.87 420.62 C 40.46 420.62 23.91 404.07 23.91 383.66 C 23.91 363.25 40.46 346.70 60.87 346.70 C 81.28 346.70 97.83 363.25 97.83 383.66 Z" fill="none" group-id="1" node-id="73" stroke="#b6c6fc" stroke-linecap="round" stroke-width="3.19" target-height="73.91998" target-width="73.92" target-x="23.91" target-y="346.7"></path><path d="M 125.85 181.05 C 125.85 190.48 118.21 198.12 108.78 198.12 C 99.35 198.12 91.71 190.48 91.71 181.05 C 91.71 171.62 99.35 163.98 108.78 163.98 C 118.21 163.98 125.85 171.62 125.85 181.05 Z" fill="none" group-id="1" node-id="75" stroke="#b6c6fc" stroke-linecap="round" stroke-width="3.19" target-height="34.139984" target-width="34.13999" target-x="91.71001" target-y="163.98001"></path><path d="M 416.48 630.50 L 333.39 528.50 C 333.39 528.50 425.14 466.17 482.11 466.44 C 485.88 473.95 626.68 738.44 682.39 843.11" fill="none" group-id="1" node-id="77" stroke="#1b3c87" stroke-linecap="round" stroke-width="3.19" target-height="376.93997" target-width="349" target-x="333.39" target-y="466.17"></path><path d="M 589.62 843.09 L 462.38 686.86" fill="none" group-id="1" node-id="79" stroke="#1b3c87" stroke-linecap="round" stroke-width="3.19" target-height="156.23004" target-width="127.23999" target-x="462.38" target-y="686.86"></path><path d="M 217.56 653.00 C 202.02 671.00 191.05 686.24 190.77 693.27 C 189.87 716.33 226.03 914.77 231.91 923.36 L 287.51 923.36 C 287.51 923.36 282.51 732.60 286.61 727.63 C 290.71 722.66 442.61 638.12 442.61 638.12 C 442.61 638.12 393.34 502.51 322.37 549.12 C 315.75 553.73 289.32 578.07 261.86 605.75" fill="none" group-id="1" node-id="81" stroke="#1b3c87" stroke-linecap="round" stroke-width="3.19" target-height="420.84998" target-width="252.73999" target-x="189.87" target-y="502.51"></path><path d="M 207.83 923.37 L 320.36 923.37" fill="none" group-id="1" node-id="83" stroke="#1b3c87" stroke-linecap="round" stroke-width="3.19" target-height="0" target-width="112.52998" target-x="207.83" target-y="923.36993"></path><path d="M 206.82 946.35 L 319.34 946.35" fill="none" group-id="1" node-id="85" stroke="#1b3c87" stroke-linecap="round" stroke-width="3.19" target-height="0" target-width="112.51999" target-x="206.82" target-y="946.35"></path><path d="M 296.25 952.35 C 295.67 961.03 294.25 976.44 294.25 976.44 L 312.52 1020.44 L 174.65 1046.13 L 248.58 987.00 L 240.87 952.35" fill="#ffffff" fill-rule="nonzero" group-id="1" node-id="87" stroke="none" target-height="93.78003" target-width="137.87" target-x="174.65" target-y="952.35"></path><path d="M 227.29 993.22 L 242.58 981.00 L 234.87 946.35" fill="none" group-id="1" node-id="89" stroke="#1b3c87" stroke-linecap="round" stroke-width="3.19" target-height="46.869995" target-width="15.290009" target-x="227.29" target-y="946.35"></path><path d="M 290.24 946.35 C 289.67 955.03 288.24 970.44 288.24 970.44 L 306.51 1014.44 L 168.64 1040.13 L 200.37 1014.77" fill="none" group-id="1" node-id="91" stroke="#1b3c87" stroke-linecap="round" stroke-width="3.19" target-height="93.78003" target-width="137.87001" target-x="168.64" target-y="946.35"></path><path d="M 687.20 843.08 C 629.49 734.68 493.81 479.78 490.11 472.41 C 433.11 472.14 341.39 534.47 341.39 534.47 L 592.73 843.08 Z" fill="#3b3744" fill-rule="nonzero" group-id="1" node-id="93" stroke="none" target-height="370.94" target-width="345.81" target-x="341.39" target-y="472.14"></path><path d="M 201.53 388.66 C 200.53 401.21 196.44 462.96 196.44 468.38 C 196.44 473.80 138.09 542.00 132.66 542.68 C 127.23 543.36 95.38 530.76 92.23 530.76 C 89.08 530.76 58.73 537.06 53.76 536.76 C 48.79 536.46 52.76 546.21 71.50 546.05 L 61.84 545.05 C 57.07 545.69 56.13 546.05 51.79 546.05 C 47.45 546.05 49.61 557.16 75.15 557.16 C 79.97 561.89 75.15 564.54 94.07 569.05 C 112.99 573.56 131.90 580.16 135.90 577.73 C 143.28 570.24 152.38 561.37 168.00 560.34 C 180.53 552.75 251.42 480.39 252.85 476.34 C 254.28 472.29 255.66 412.83 255.66 412.83 C 255.66 412.83 242.57 362.90 201.53 388.66 Z" fill="#ffffff" fill-rule="nonzero" group-id="1" node-id="95" stroke="none" target-height="217.25998" target-width="208.21002" target-x="47.45" target-y="362.9"></path><path d="M 569.66 486.55 C 555.49 472.05 549.80 455.55 547.17 447.34 C 541.62 440.71 451.10 366.27 446.00 364.00 C 440.90 361.73 391.94 345.52 391.94 345.52 L 413.00 282.79 C 420.00 286.34 466.76 310.79 472.88 315.36 C 479.00 319.93 571.22 430.78 573.48 433.36 C 575.74 435.94 592.22 438.15 593.48 443.03 C 597.35 458.19 610.89 472.40 626.37 481.58 C 626.66 485.87 628.27 501.09 605.53 508.27 C 591.98 504.11 579.67 496.65 569.72 486.55" fill="#ffffff" fill-rule="nonzero" group-id="1" node-id="97" stroke="none" target-height="225.47998" target-width="236.33002" target-x="391.94" target-y="282.79"></path><path d="M 215.40 102.08 C 263.40 102.08 286.48 164.08 293.40 176.08 C 320.40 223.08 375.40 235.08 375.40 287.08 C 375.40 301.08 243.40 332.08 235.40 332.08 C 227.40 332.08 216.40 306.08 216.40 269.08 C 216.40 235.08 168.40 229.08 168.40 172.08 C 168.40 128.08 174.40 102.08 215.40 102.08 Z" fill="#ecc953" fill-rule="nonzero" group-id="1" node-id="99" stroke="none" target-height="229.99998" target-width="207" target-x="168.4" target-y="102.08"></path><path d="M 70.15 552.13 C 44.61 552.13 42.45 541.02 46.79 541.02 C 51.13 541.02 52.07 540.68 56.84 540.02 L 66.50 541.02 C 47.76 541.18 43.78 531.40 48.75 531.73 C 53.72 532.06 84.08 525.73 87.23 525.73 C 90.38 525.73 122.23 538.33 127.66 537.65 C 133.09 536.97 191.44 468.78 191.44 463.35 C 191.44 457.92 195.51 396.18 196.53 383.63" fill="none" group-id="1" node-id="101" stroke="#1b3c87" stroke-linecap="round" stroke-width="3.19" target-height="168.5" target-width="154.08" target-x="42.45" target-y="383.63"></path><path d="M 203.75 517.00 C 185.95 535.00 168.85 551.79 165.82 553.82 C 159.18 558.26 151.69 556.12 146.55 559.54 C 141.41 562.96 134.34 573.00 129.20 573.00 C 124.06 573.00 92.58 564.22 80.58 562.30 C 68.58 560.38 87.22 549.78 107.58 553.79" fill="none" group-id="1" node-id="103" stroke="#1b3c87" stroke-linecap="round" stroke-width="3.19" target-height="56" target-width="135.16998" target-x="68.58" target-y="517"></path><path d="M 250.66 447.08 C 250.66 454.16 249.13 468.73 247.85 471.30 C 247.56 471.86 243.76 475.95 237.93 482.04" fill="none" group-id="1" node-id="105" stroke="#1b3c87" stroke-linecap="round" stroke-width="3.19" target-height="34.960022" target-width="12.730026" target-x="237.92998" target-y="447.08"></path><path d="M 520.45 371.12 C 544.25 399.38 567.31 427.12 568.45 428.36 C 570.71 430.94 587.19 433.15 588.45 438.03 C 592.32 453.19 605.86 467.40 621.33 476.58" fill="none" group-id="1" node-id="107" stroke="#1b3c87" stroke-linecap="round" stroke-width="3.19" target-height="105.46002" target-width="100.880005" target-x="520.45" target-y="371.12"></path><path d="M 408.00 277.79 C 415.00 281.34 461.76 305.79 467.88 310.36 C 469.58 311.60 477.88 320.97 488.97 333.94" fill="none" group-id="1" node-id="109" stroke="#1b3c87" stroke-linecap="round" stroke-width="3.19" target-height="56.149994" target-width="80.97" target-x="408" target-y="277.79"></path><path d="M 564.29 480.34 C 575.38 491.53 588.71 500.03 600.47 503.27" fill="none" group-id="1" node-id="111" stroke="#1b3c87" stroke-linecap="round" stroke-width="3.19" target-height="22.929993" target-width="36.179993" target-x="564.29" target-y="480.34"></path><path d="M 383.28 340.49 C 392.39 343.24 434.00 354.85 443.00 360.00 C 452.00 365.15 538.30 431.00 542.63 445.76 C 544.53 452.02 547.28 458.00 550.81 463.51" fill="none" group-id="1" node-id="113" stroke="#1b3c87" stroke-linecap="round" stroke-width="3.19" target-height="123.02002" target-width="167.53" target-x="383.28" target-y="340.49"></path><path d="M 586.90 471.00 C 591.65 475.41 612.66 486.59 623.84 491.00" fill="none" group-id="1" node-id="115" stroke="#1b3c87" stroke-linecap="round" stroke-width="3.19" target-height="20" target-width="36.940002" target-x="586.9" target-y="471"></path><path d="M 592.00 487.56 C 598.15 491.71 602.38 493.56 613.56 497.92" fill="none" group-id="1" node-id="117" stroke="#1b3c87" stroke-linecap="round" stroke-width="3.19" target-height="10.360016" target-width="21.559998" target-x="592" target-y="487.56"></path><path d="M 341.16 226.18 C 357.52 241.11 370.40 256.91 370.40 282.08 C 370.40 296.08 238.40 327.08 230.40 327.08 C 222.40 327.08 211.40 301.08 211.40 264.08 C 211.40 230.08 163.40 224.08 163.40 167.08 C 163.30 158.68 163.64 150.27 164.40 141.90" fill="none" group-id="1" node-id="119" stroke="#1b3c87" stroke-linecap="round" stroke-width="3.19" target-height="185.18" target-width="207.09653" target-x="163.3035" target-y="141.9"></path><path d="M 196.07 98.39 C 200.79 97.47 205.59 97.03 210.40 97.08 C 258.40 97.08 281.48 159.08 288.40 171.08 C 295.15 182.83 303.65 192.39 312.60 200.94" fill="none" group-id="1" node-id="121" stroke="#1b3c87" stroke-linecap="round" stroke-width="3.19" target-height="103.90806" target-width="116.53" target-x="196.07" target-y="97.03196"></path><path d="M 233.18 299.88 C 208.71 293.88 190.26 360.44 191.29 387.81 C 205.81 403.81 238.16 404.61 246.29 403.57 C 254.42 402.53 233.18 299.88 233.18 299.88 Z" fill="#46dbc9" fill-rule="nonzero" group-id="1" node-id="123" stroke="none" target-height="110.72995" target-width="64.15999" target-x="190.26" target-y="293.88"></path><path d="M 187.80 363.19 C 186.69 369.67 186.19 376.24 186.29 382.81 C 200.81 398.81 233.16 399.61 241.29 398.57 C 249.42 397.53 228.22 294.88 228.22 294.88 C 213.65 291.30 201.22 313.45 193.76 337.74" fill="none" group-id="1" node-id="125" stroke="#1b3c87" stroke-linecap="round" stroke-width="3.19" target-height="108.31" target-width="63.230896" target-x="186.1891" target-y="291.3"></path><path d="M 257.22 264.26 C 327.05 233.00 420.56 352.93 491.11 472.41 C 482.21 491.80 365.59 560.41 326.82 559.80 C 290.59 518.81 159.35 308.12 257.22 264.26 Z" fill="#46dbc9" fill-rule="nonzero" group-id="1" node-id="127" stroke="none" target-height="327.40997" target-width="331.75998" target-x="159.35" target-y="233"></path><path d="M 301.00 532.00 C 281.16 503.90 253.94 458.72 235.00 412.70" fill="none" group-id="1" node-id="129" stroke="#1b3c87" stroke-linecap="round" stroke-width="3.19" target-height="119.29999" target-width="66" target-x="235" target-y="412.7"></path><path d="M 477.14 458.05 C 478.81 460.84 480.47 463.62 482.14 466.41 C 475.91 479.99 416.81 517.74 368.64 538.92" fill="none" group-id="1" node-id="131" stroke="#1b3c87" stroke-linecap="round" stroke-width="3.19" target-height="80.869995" target-width="113.49997" target-x="368.64" target-y="458.05"></path><path d="M 220.32 370.58 C 206.54 320.72 208.77 275.94 248.22 258.26 C 309.89 230.63 390.00 321.00 456.51 424.75" fill="none" group-id="1" node-id="133" stroke="#1b3c87" stroke-linecap="round" stroke-width="3.19" target-height="194.12" target-width="249.97" target-x="206.54001" target-y="230.63"></path><path d="M 296.83 263.37 C 311.50 232.21 390.32 262.14 413.83 277.93 C 415.76 291.08 396.29 344.93 385.07 350.19 C 368.74 348.78 278.59 302.13 296.83 263.37 Z" fill="#46dbc9" fill-rule="nonzero" group-id="1" node-id="135" stroke="none" target-height="117.98003" target-width="137.17001" target-x="278.59" target-y="232.21"></path><path d="M 267.40 204.61 C 268.85 213.83 278.80 257.37 288.76 269.82 C 285.44 276.87 271.55 291.18 253.40 286.61 C 248.32 274.61 237.84 250.28 234.58 246.05 C 231.32 241.82 267.40 204.61 267.40 204.61 Z" fill="#ffffff" fill-rule="nonzero" group-id="1" node-id="137" stroke="none" target-height="86.56999" target-width="57.440002" target-x="231.32" target-y="204.61"></path><path d="M 244.44 272.33 C 239.09 259.94 232.13 244.33 229.58 241.05 C 226.32 236.82 262.40 199.61 262.40 199.61 C 263.85 208.83 273.80 252.37 283.76 264.82 C 281.45 269.72 274.02 278.14 263.60 281.27" fill="none" group-id="1" node-id="139" stroke="#1b3c87" stroke-linecap="round" stroke-width="3.19" target-height="81.65999" target-width="57.439987" target-x="226.32002" target-y="199.61"></path><g node-id="174"><path d="M 265.84 168.16 C 279.34 204.65 270.75 241.45 246.65 250.36 C 222.55 259.28 192.08 236.92 178.58 200.44 C 165.08 163.95 173.68 127.15 197.77 118.23 C 221.87 109.32 252.34 131.67 265.84 168.16 Z" fill="#ffffff" fill-rule="nonzero" group-id="1,2" node-id="143" stroke="none" target-height="149.95694" target-width="114.25482" target-x="165.08356" target-y="109.31968"></path></g><path d="M 264.72 217.08 C 260.94 230.73 253.03 241.15 241.66 245.35 C 231.16 249.24 219.45 247.18 208.46 240.61" fill="none" group-id="1" node-id="146" stroke="#1b3c87" stroke-linecap="round" stroke-width="3.19" target-height="32.16002" target-width="56.259995" target-x="208.46" target-y="217.07999"></path><path d="M 203.40 189.08 C 204.40 192.08 204.76 204.22 203.40 210.15" fill="none" group-id="1" node-id="148" stroke="#1b3c87" stroke-linecap="round" stroke-width="3.19" target-height="21.069992" target-width="1.3600159" target-x="203.4" target-y="189.08"></path><g node-id="175"><path d="M 191.12 194.19 C 191.55 195.67 191.73 197.15 191.61 198.31 C 191.50 199.47 191.10 200.22 190.51 200.39 C 189.92 200.56 189.19 200.15 188.46 199.23 C 187.74 198.31 187.10 196.96 186.67 195.49 C 186.24 194.02 186.06 192.54 186.18 191.38 C 186.29 190.22 186.69 189.47 187.28 189.29 C 187.87 189.12 188.60 189.54 189.33 190.46 C 190.05 191.38 190.69 192.72 191.12 194.19 Z" fill="#1b3c87" fill-rule="nonzero" group-id="1,3" node-id="152" stroke="none" target-height="11.442169" target-width="5.666855" target-x="186.06137" target-y="189.1225"></path></g><path d="M 222.88 222.87 C 225.18 221.31 229.45 215.03 229.58 208.95" fill="none" group-id="1" node-id="155" stroke="#1b3c87" stroke-linecap="round" stroke-width="3.19" target-height="13.919983" target-width="6.699997" target-x="222.88" target-y="208.95001"></path><path d="M 196.40 156.08 C 202.40 170.08 238.40 187.08 275.40 185.08 C 275.40 180.08 263.40 136.08 254.40 129.08 C 245.40 122.08 204.40 100.08 186.40 118.08 C 168.40 136.08 196.40 156.08 196.40 156.08 Z" fill="#ecc953" fill-rule="nonzero" group-id="1" node-id="157" stroke="none" target-height="87" target-width="107" target-x="168.4" target-y="100.08"></path><path d="M 199.40 145.08 C 199.40 151.08 183.40 198.86 175.89 206.47 C 167.40 190.08 165.40 144.08 175.40 133.08 C 185.00 122.56 199.40 145.08 199.40 145.08 Z" fill="#ecc953" fill-rule="nonzero" group-id="1" node-id="159" stroke="none" target-height="83.91" target-width="34" target-x="165.4" target-y="122.56"></path><path d="M 192.66 153.41 C 200.10 164.93 226.04 177.60 255.24 179.88" fill="none" group-id="1" node-id="161" stroke="#1b3c87" stroke-linecap="round" stroke-width="3.19" target-height="26.470001" target-width="62.58" target-x="192.66" target-y="153.41"></path><path d="M 189.58 158.18 C 185.72 170.02 180.22 184.76 175.58 193.90" fill="none" group-id="1" node-id="163" stroke="#1b3c87" stroke-linecap="round" stroke-width="3.19" target-height="35.72" target-width="14" target-x="175.58" target-y="158.18"></path><path d="M 264.40 183.08 C 264.40 189.71 259.03 195.08 252.40 195.08 C 245.77 195.08 240.40 189.71 240.40 183.08 C 240.40 176.45 245.77 171.08 252.40 171.08 C 259.03 171.08 264.40 176.45 264.40 183.08 Z" fill="#ffffff" fill-rule="nonzero" group-id="1" node-id="165" stroke="none" target-height="24" target-width="24" target-x="240.4" target-y="171.08"></path><path d="M 239.46 171.08 C 242.93 167.19 248.52 165.99 253.29 168.11 C 258.05 170.23 260.90 175.19 260.34 180.37 C 259.78 185.55 255.93 189.78 250.82 190.83" fill="none" group-id="1" node-id="167" stroke="#1b3c87" stroke-linecap="round" stroke-width="3.19" target-height="24.839005" target-width="21.44194" target-x="239.46" target-y="165.991"></path><path d="M 376.81 256.65 C 389.81 261.72 401.09 267.40 407.81 271.93 C 409.74 285.08 390.27 338.93 379.05 344.19 C 376.10 343.93 370.76 342.19 364.05 339.32" fill="none" group-id="1" node-id="169" stroke="#1b3c87" stroke-linecap="round" stroke-width="3.19" target-height="87.54001" target-width="45.690002" target-x="364.05" target-y="256.65"></path><path d="M 334.42 323.37 C 307.11 305.92 280.06 280.27 290.83 257.37 C 297.91 242.37 319.91 241.52 343.44 246.48" fill="none" group-id="1" node-id="171" stroke="#1b3c87" stroke-linecap="round" stroke-width="3.19" target-height="81.84999" target-width="63.380005" target-x="280.06" target-y="241.52"></path></g></svg>